<svg xmlns="http://www.w3.org/2000/svg" xmlns:xlink="http://www.w3.org/1999/xlink" width="155" height="22" viewBox="64 14 155 22">
    <defs>
        <path id="a" d="M0 .019h43.656V49.32H0z"/>
    </defs>
    <g fill="none" fill-rule="evenodd">
        <path fill="#FFF" d="M74.472 19.043c0 1.64-.537 2.897-1.612 3.77-1.074.874-2.603 1.311-4.587 1.311h-1.632V30h-2.568V14.295h4.523c1.962 0 3.432.401 4.41 1.203.977.802 1.466 1.984 1.466 3.545zm-7.831 2.922h1.364c1.318 0 2.284-.23 2.9-.688.616-.458.924-1.174.924-2.148 0-.902-.276-1.576-.827-2.02-.551-.444-1.41-.666-2.578-.666H66.64v5.522zM88.25 30h-2.536v-7.305c0-.916-.184-1.6-.553-2.051-.369-.452-.954-.677-1.756-.677-1.06 0-1.84.317-2.337.95-.498.634-.746 1.696-.746 3.186V30h-2.525V13.285h2.525v4.243c0 .68-.043 1.408-.13 2.181h.162a3.505 3.505 0 0 1 1.434-1.332c.612-.315 1.327-.473 2.143-.473 2.879 0 4.318 1.45 4.318 4.35V30zm11.404 0l-.505-1.654h-.086c-.573.723-1.15 1.215-1.73 1.477-.58.261-1.324.392-2.234.392-1.167 0-2.078-.315-2.734-.945-.655-.63-.983-1.522-.983-2.675 0-1.225.455-2.149 1.365-2.772.91-.623 2.295-.963 4.157-1.02l2.052-.065v-.634c0-.759-.178-1.326-.532-1.702-.355-.376-.904-.564-1.649-.564-.609 0-1.192.09-1.75.268-.56.18-1.097.39-1.612.634l-.817-1.804a8.786 8.786 0 0 1 2.117-.769 9.739 9.739 0 0 1 2.17-.263c1.51 0 2.651.33 3.42.989.77.658 1.156 1.693 1.156 3.104V30h-1.805zm-3.76-1.719c.917 0 1.653-.256 2.208-.768.555-.512.832-1.23.832-2.154v-1.03l-1.525.064c-1.189.043-2.054.241-2.594.596-.541.354-.811.897-.811 1.627 0 .53.157.94.472 1.23.315.29.788.435 1.418.435zM115.894 30h-2.536v-7.305c0-.916-.184-1.6-.553-2.051-.369-.452-.954-.677-1.756-.677-1.067 0-1.848.315-2.342.945-.494.63-.741 1.687-.741 3.17V30h-2.525V18.12h1.977l.354 1.557h.13c.357-.566.866-1.003 1.525-1.31.659-.309 1.39-.463 2.191-.463 2.85 0 4.276 1.45 4.276 4.35V30zm8.396-1.826c.616 0 1.232-.097 1.848-.29v1.901c-.28.122-.64.224-1.08.306-.44.083-.897.124-1.37.124-2.391 0-3.587-1.26-3.587-3.781V20.03h-1.622v-1.117l1.74-.924.86-2.513h1.557v2.642h3.384v1.912h-3.384v6.36c0 .608.152 1.058.457 1.348.304.29.703.435 1.197.435zM136.404 30l-.505-1.654h-.086c-.573.723-1.15 1.215-1.73 1.477-.58.261-1.324.392-2.234.392-1.167 0-2.078-.315-2.734-.945-.655-.63-.983-1.522-.983-2.675 0-1.225.455-2.149 1.365-2.772.91-.623 2.295-.963 4.157-1.02l2.052-.065v-.634c0-.759-.178-1.326-.532-1.702-.355-.376-.904-.564-1.649-.564-.609 0-1.192.09-1.75.268-.56.18-1.097.39-1.612.634l-.817-1.804a8.786 8.786 0 0 1 2.117-.769 9.739 9.739 0 0 1 2.17-.263c1.51 0 2.651.33 3.42.989.77.658 1.156 1.693 1.156 3.104V30h-1.805zm-3.76-1.719c.917 0 1.653-.256 2.208-.768.555-.512.832-1.23.832-2.154v-1.03l-1.525.064c-1.189.043-2.054.241-2.594.596-.541.354-.811.897-.811 1.627 0 .53.157.94.472 1.23.315.29.788.435 1.418.435zm17.528-1.665c0 1.16-.423 2.05-1.268 2.67-.845.62-2.055.929-3.63.929-1.583 0-2.854-.24-3.814-.72v-2.18c1.396.644 2.696.966 3.9.966 1.553 0 2.33-.469 2.33-1.407 0-.3-.086-.551-.257-.752-.172-.2-.455-.408-.849-.623-.394-.215-.942-.458-1.644-.73-1.367-.53-2.293-1.06-2.776-1.59-.484-.53-.726-1.218-.726-2.063 0-1.017.41-1.806 1.23-2.368.82-.563 1.936-.844 3.347-.844 1.396 0 2.717.283 3.964.849l-.817 1.901c-1.282-.53-2.36-.795-3.233-.795-1.332 0-1.998.38-1.998 1.139 0 .372.173.688.52.945.348.258 1.105.613 2.273 1.064.98.38 1.693.727 2.137 1.042.444.315.774.678.989 1.09.214.412.322.904.322 1.477zm1.382-8.497h2.75l2.417 6.735c.365.96.609 1.862.73 2.708h.086c.065-.394.183-.872.355-1.435.172-.562 1.081-3.231 2.728-8.008h2.729l-5.081 13.46c-.924 2.47-2.464 3.706-4.62 3.706a7.27 7.27 0 0 1-1.632-.182v-1.999c.38.086.813.13 1.3.13 1.217 0 2.073-.706 2.567-2.117l.44-1.117-4.769-11.88zM177.479 30h-2.568V16.497h-4.619v-2.202h11.806v2.202h-4.62V30zm16.217-5.962c0 1.94-.498 3.455-1.494 4.544-.995 1.089-2.38 1.633-4.157 1.633-1.11 0-2.09-.25-2.943-.752-.852-.501-1.508-1.221-1.966-2.16-.458-.937-.687-2.026-.687-3.265 0-1.926.494-3.43 1.482-4.512.988-1.081 2.381-1.622 4.179-1.622 1.718 0 3.08.554 4.082 1.66 1.002 1.106 1.504 2.598 1.504 4.474zm-8.648 0c0 2.743 1.014 4.114 3.04 4.114 2.005 0 3.008-1.371 3.008-4.114 0-2.714-1.01-4.071-3.03-4.071-1.06 0-1.827.35-2.303 1.053-.477.701-.715 1.708-.715 3.018zM205.433 30l-.354-1.558h-.13c-.35.552-.85.985-1.498 1.3-.648.315-1.387.473-2.218.473-1.44 0-2.514-.358-3.223-1.074-.709-.717-1.063-1.801-1.063-3.255v-7.767h2.546v7.326c0 .91.186 1.592.558 2.047.373.454.956.682 1.751.682 1.06 0 1.84-.317 2.337-.95.498-.635.746-1.696.746-3.186V18.12h2.536V30h-1.988zm12.07-12.096c.51 0 .928.036 1.258.108l-.247 2.352a4.771 4.771 0 0 0-1.118-.129c-1.01 0-1.827.33-2.454.989-.627.658-.94 1.514-.94 2.567V30h-2.524V18.12h1.976l.333 2.094h.129a4.707 4.707 0 0 1 1.542-1.687 3.664 3.664 0 0 1 2.046-.623z"/>
    </g>
</svg>
