<svg xmlns="http://www.w3.org/2000/svg" xmlns:xlink="http://www.w3.org/1999/xlink" width="44" height="50" viewBox="0 0 44 50">
    <defs>
        <path id="a" d="M0 .019h43.656V49.32H0z"/>
    </defs>
    <g fill="none" fill-rule="evenodd">
        <g transform="translate(0 .003)">
            <mask id="b" fill="#fff">
                <use xlink:href="#a"/>
            </mask>
            <path fill="#FFF" d="M20.918 3.459a16.597 16.597 0 0 1 2.095-.133c11.25 0 16.836 7.573 16.836 17.087 0 1.098-.183 2.223-.518 3.343-.552 1.989-1.86 4.8-2.997 7.029l-.027.053-.178.08c-.49.3-1.06.546-1.684.746-1.138.366-2.453.577-3.776.685-3.139.43-6.306.376-8.748.443-.278.007-.68-.004-1.17-.032-2.25-.131-6.38-.62-9.106-1.277a28.752 28.752 0 0 0-1.706-.369 17.243 17.243 0 0 1-3.696-10.702c0-8.713 6.402-15.903 14.675-16.953m16.598 31.606c.273 1.977.477 3.192 2.52 4.58-2.077 1.492-7.491 5.274-17.98 4.094.75-.208 12.816-1.283 15.46-8.674m.549-3.436c.309-.236.934-.709 1.266 0 .33.708-1.028 1.54-2.425 2.362-1.004.59-3.772 1.666-8.834 2.28a64.938 64.938 0 0 1-5.875.424c-1.697.05-3.227.003-4.594-.105-5.793-.46-8.645-2.031-8.75-2.074.859.06 2.917.403 5.716.662 3.417.315 7.937.502 12.726-.113a46.615 46.615 0 0 0 3.994-.678c1.543-.337 2.75-.705 3.689-1.06 2.165-.817 2.91-1.563 3.087-1.698m3.167 4.643c-1.33-1.532-.493-2.6.829-5.017 1.321-2.418.592-2.366-1.713-4.177C48.031 11.197 34.587.018 23.007.018 10.487.019 2.835 9.15 2.835 20.414c0 2.802.652 5.564 1.82 8.108-1.004 1.4-2.547 3.427-1.421 4.894 1.23 1.603 1.321 2.3-1.23 4.529-2.553 2.229-2.37 4.411-1.095 5.294 1.276.882 7.601 6.083 20.594 6.083 7.979 0 16.912-1.626 20.467-5.62 3.554-3.993.592-5.896-.738-7.429" mask="url(#b)"/>
        </g>
        <path fill="#FFF" d="M15.717 21.179c0-.55-.117-1.458-.164-2.437-.024-.98-.094-2.174-.399-3.202.352-.19 1.22-.454 1.946-.454.821 0 2.837.24 2.837 1.673 0 2.365-2.884 3.75-4.22 4.42m1.923-7.813c-2.345 0-4.97.98-6.612 2.055-.328.215-.54.526-.54.932 0 .62.376.836.704.836.375 0 .422-.096.703-.24.305-.095.633-.453.821-.453.164 0 .187.31.211.478.258 1.911.516 4.563.516 5.232 0 .573-.422.478-.422 1.362 0 .286.398.55.445.931.024.335.211 2.652.328 3.106.188.693.915.812 1.173.812.516 0 1.641-.477 1.641-1.242 0-.215-.188-.788-.258-1.051-.094-.406-.445-2.222-.445-2.7 1.29-.597 6.729-3.344 6.729-7.047 0-2.246-2.65-3.01-4.994-3.01M33.67 10.236c-.938 0-4.689.931-5.298 1.003-.61.072-3.94.86-4.713.86-.563 0-.797.765-.797 1.051 0 .311.304 1.075.89 1.075.798 0 2.486-.62 3.588-.788.07 2.413.281 3.99.281 5.949 0 1.648.282 4.205.399 4.706.21.932.727 1.482 1.407 1.482s1.383-.287 1.383-.932c0-.621-.469-1.744-.563-2.628-.094-.932-.281-3.894-.305-4.85-.046-.956-.281-3.01-.258-4.3.985-.263 3.119-.526 3.775-.526.657 0 1.126-.573 1.126-1.051s-.399-1.051-.915-1.051"/>
    </g>
</svg>
